<?xml version="1.0" encoding="utf-8"?>
<svg viewBox="1.651 1.79 136.369 109.097" width="136.369" height="109.097" xmlns="http://www.w3.org/2000/svg">
  <path d="M 138.02 99.523 C 138.02 105.773 132.907 110.887 126.657 110.887 L 13.014 110.887 C 6.764 110.887 1.651 105.774 1.651 99.523 L 1.651 13.153 C 1.651 6.903 6.764 1.79 13.014 1.79 L 126.657 1.79 C 132.907 1.79 138.02 6.903 138.02 13.153 L 138.02 99.523 Z M 13.014 10.881 C 11.807 10.881 10.743 11.949 10.743 13.152 L 10.743 99.522 C 10.743 100.729 11.808 101.793 13.014 101.793 L 126.657 101.793 C 127.86 101.793 128.931 100.729 128.931 99.522 L 128.931 13.152 C 128.931 11.949 127.86 10.881 126.657 10.881 L 13.014 10.881 L 13.014 10.881 Z M 33.472 47.246 C 25.943 47.246 19.831 41.138 19.831 33.611 C 19.831 26.084 25.943 19.973 33.472 19.973 C 40.998 19.973 47.104 26.084 47.104 33.611 C 47.104 41.138 40.999 47.246 33.472 47.246 Z M 119.836 92.705 L 19.831 92.705 L 19.831 79.065 L 42.561 56.341 L 53.924 67.701 L 90.289 31.34 L 119.836 60.887 L 119.836 92.705 Z" style="fill: rgb(255, 255, 255);"/>
</svg>